HIERARCHY
ROOT RootJoint
{
    OFFSET   0.000000   0.000000   0.000000
    CHANNELS 6 Xposition Yposition Zposition Xrotation Yrotation Zrotation
    JOINT pelvis_lowerback
    {
        OFFSET   0.000000   0.093605   0.000000
        CHANNELS 3 Xrotation Yrotation Zrotation
        JOINT lowerback_torso
        {
            OFFSET   0.000000   0.100000   0.000000
            CHANNELS 3 Xrotation Yrotation Zrotation
            JOINT torso_head
            {
                OFFSET   0.000000   0.282350   0.000000
                CHANNELS 3 Xrotation Yrotation Zrotation
                End Site
                {
                    OFFSET   0.000000   0.192650   0.000000
                }
            }
            JOINT rTorso_Clavicle
            {
                OFFSET  -0.001000   0.157500   0.000000
                CHANNELS 3 Xrotation Yrotation Zrotation
                JOINT rShoulder
                {
                    OFFSET  -0.117647   0.000000   0.000000
                    CHANNELS 3 Xrotation Yrotation Zrotation
                    JOINT rElbow
                    {
                        OFFSET  -0.245000   0.000000   0.000000
                        CHANNELS 3 Xrotation Yrotation Zrotation
                        JOINT rWrist
                        {
                            OFFSET  -0.240000   0.000000   0.000000
                            CHANNELS 3 Xrotation Yrotation Zrotation
                            End Site
                            {
                                OFFSET  -0.116353  -0.002500   0.000000
                            }
                        }
                    }
                }
            }
            JOINT lTorso_Clavicle
            {
                OFFSET   0.001000   0.157500   0.000000
                CHANNELS 3 Xrotation Yrotation Zrotation
                JOINT lShoulder
                {
                    OFFSET   0.117647   0.000000   0.000000
                    CHANNELS 3 Xrotation Yrotation Zrotation
                    JOINT lElbow
                    {
                        OFFSET   0.245000   0.000000   0.000000
                        CHANNELS 3 Xrotation Yrotation Zrotation
                        JOINT lWrist
                        {
                            OFFSET   0.240000   0.000000   0.000000
                            CHANNELS 3 Xrotation Yrotation Zrotation
                            End Site
                            {
                                OFFSET   0.116353  -0.002500   0.000000
                            }
                        }
                    }
                }
            }
        }
    }
    JOINT rHip
    {
        OFFSET  -0.100000  -0.051395   0.000000
        CHANNELS 3 Xrotation Yrotation Zrotation
        JOINT rKnee
        {
            OFFSET   0.000000  -0.410000   0.000000
            CHANNELS 3 Xrotation Yrotation Zrotation
            JOINT rAnkle
            {
                OFFSET   0.000000  -0.390000   0.000000
                CHANNELS 3 Xrotation Yrotation Zrotation
                JOINT rToeJoint
                {
                    OFFSET   0.000000  -0.050000   0.130000
                    CHANNELS 3 Xrotation Yrotation Zrotation
                    End Site
                    {
                        OFFSET  -0.010000   0.002000   0.060000
                    }
                }
            }
        }
    }
    JOINT lHip
    {
        OFFSET   0.100000  -0.051395   0.000000
        CHANNELS 3 Xrotation Yrotation Zrotation
        JOINT lKnee
        {
            OFFSET   0.000000  -0.410000   0.000000
            CHANNELS 3 Xrotation Yrotation Zrotation
            JOINT lAnkle
            {
                OFFSET   0.000000  -0.390000   0.000000
                CHANNELS 3 Xrotation Yrotation Zrotation
                JOINT lToeJoint
                {
                    OFFSET   0.000000  -0.050000   0.130000
                    CHANNELS 3 Xrotation Yrotation Zrotation
                    End Site
                    {
                        OFFSET   0.010000   0.002000   0.060000
                    }
                }
            }
        }
    }
}
MOTION
Frames: 10
Frame Time:   0.008333
 -2.334161   0.906047   4.180585   8.567247 -10.193122   3.278868   4.035993  -2.701593  -0.245382   4.112207  -0.796044   2.587787  -5.527815   0.035312  -0.614830   7.432130 -15.381789  -3.798592  42.120850   3.608794  43.949847   0.025710  60.021020  -0.044745  -2.625426   9.671188   0.491481   9.567255  10.837021   1.989545  48.980319 -12.453340 -48.822522   0.026309 -56.679380   0.034018  -1.391414  -9.948235  -3.157250 -17.294718  -3.948054  -6.321150  23.130988   0.000875   0.000940 -13.599702  -4.326145   3.851009  -0.778266  -0.000376  -0.002280 -12.069660   2.758300   7.486176  18.356404   0.000788   0.000607  -9.053474   6.052451  -2.770624  -7.460059   0.002877   0.001551
 -2.336087   0.906205   4.181000   8.673067 -10.233521   3.359360   3.946875  -2.688847  -0.213574   3.751334  -0.842567   2.604984  -5.531153   0.097705  -0.617925   7.374579 -15.680891  -3.745201  41.611693   3.524169  44.100999   0.023830  59.342937  -0.043631  -2.540776   9.674784   0.309263   9.473572  11.101032   1.960389  48.357686 -12.293717 -48.960542   0.025970 -56.229496   0.033688  -1.239132  -9.957075  -3.071056 -17.352651  -3.867526  -6.230407  23.147337   0.000684   0.000762 -13.664155  -4.370219   3.710030  -0.787573  -0.000301  -0.001824 -12.186525   2.759114   7.543315  18.461480   0.000523   0.000467  -8.799209   6.088060  -2.756870  -7.940104   0.002973   0.001295
 -2.338022   0.906322   4.181316   8.765283 -10.285106   3.431257   3.879240  -2.670775  -0.189386   3.418165  -0.882615   2.621396  -5.532614   0.157631  -0.623148   7.314009 -15.943330  -3.667005  41.127994   3.459789  44.248752   0.021458  58.702195  -0.041429  -2.457017   9.609333   0.154143   9.379498  11.332510   1.927426  47.772285 -12.145180 -49.077318   0.025025 -55.799807   0.032510  -1.089677  -9.965288  -2.985275 -17.412589  -3.785592  -6.131534  23.181657   0.000513   0.000629 -13.729971  -4.405546   3.581228  -0.797702  -0.000241  -0.001459 -12.308265   2.761171   7.611215  18.597438   0.000275   0.000346  -8.563440   6.129584  -2.743517  -8.412809   0.003048   0.001092
 -2.339951   0.906414   4.181575   8.849112 -10.339107   3.496650   3.820616  -2.654096  -0.167763   3.108280  -0.920052   2.637946  -5.531795   0.213664  -0.629679   7.253113 -16.181610  -3.580597  40.671636   3.407374  44.391454   0.018972  58.105690  -0.038638  -2.376638   9.538756   0.024259   9.288115  11.542906   1.894274  47.223318 -12.007890 -49.183078   0.023645 -55.398621   0.030747  -0.945942  -9.972729  -2.903957 -17.471827  -3.708108  -6.028985  23.223771   0.000367   0.000525 -13.795277  -4.434786   3.463912  -0.808528  -0.000191  -0.001168 -12.423768   2.763705   7.685034  18.732562   0.000076   0.000250  -8.340939   6.172251  -2.729697  -8.863635   0.003078   0.000928
 -2.341860   0.906488   4.181796   8.926746 -10.392379   3.557232   3.767027  -2.639690  -0.146892   2.818163  -0.955971   2.654764  -5.529979   0.265895  -0.636515   7.194052 -16.401151  -3.492532  40.243246   3.362292  44.527881   0.016567  57.550542  -0.035584  -2.299807   9.476067  -0.087463   9.200850  11.736468   1.861607  46.709586 -11.880737 -49.280537   0.022024 -55.024817   0.028662  -0.808024  -9.979463  -2.828785 -17.529543  -3.635768  -5.925315  23.269930   0.000247   0.000442 -13.859567  -4.460045   3.356409  -0.819812  -0.000151  -0.000934 -12.531644   2.766150   7.761809  18.860208  -0.000073   0.000177  -8.128452   6.214411  -2.715296  -9.292838   0.003067   0.000796
 -2.343741   0.906548   4.181988   8.998892 -10.443912   3.614028   3.716943  -2.627282  -0.126022   2.546026  -0.990473   2.671766  -5.527834   0.314577  -0.643189   7.137905 -16.604822  -3.406045  39.842308   3.321958  44.657302   0.014338  57.033443  -0.032466  -2.226360   9.421061  -0.185896   9.118328  11.915589   1.829850  46.229506 -11.762620 -49.370874   0.020297 -54.676487   0.026433  -0.675770  -9.985583  -2.759945 -17.585052  -3.568408  -5.822055  23.318478   0.000149   0.000376 -13.922673  -4.482265   3.257555  -0.831439  -0.000118  -0.000747 -12.631849   2.768384   7.839790  18.979480  -0.000183   0.000122  -7.924267   6.255467  -2.700386  -9.702531   0.003024   0.000689
 -2.345591   0.906596   4.182159   9.065877 -10.493373   3.667670   3.669683  -2.616438  -0.104834   2.290734  -1.023424   2.688855  -5.525650   0.359960  -0.649498   7.085118 -16.794432  -3.322848  39.467709   3.284908  44.779387   0.012324  56.551432  -0.029407  -2.156111   9.371746  -0.274218   9.040807  12.081958   1.799328  45.781337 -11.652592 -49.454814   0.018555 -54.351768   0.024178  -0.548981  -9.991174  -2.697103 -17.637928  -3.505715  -5.720138  23.368540   0.000069   0.000322 -13.984519  -4.501952   3.166477  -0.843357  -0.000091  -0.000598 -12.724663   2.770398   7.917903  19.090778  -0.000260   0.000081  -7.727452   6.295183  -2.685073 -10.094518   0.002958   0.000601
 -2.347455   0.906507   4.181986   9.131848 -10.547915   3.722095   3.677409  -2.603896  -0.112422   2.033982  -1.055576   2.707054  -5.506455   0.424797  -0.635004   7.076002 -16.899693  -3.231289  39.066601   3.343764  44.907553   0.010305  55.934291  -0.026652  -2.068188   9.348703  -0.366820   9.011044  12.177710   1.804582  45.418225 -11.641873 -49.448815   0.016426 -54.060608   0.021043  -0.398139  -9.997557  -2.651733 -17.768806  -3.414878  -5.604262  23.538055  -0.000128   0.000362 -14.102593  -4.541394   2.976510  -0.834208  -0.000069  -0.000478 -13.021229   2.735388   8.012001  19.566476  -0.000735  -0.000046  -7.539857   6.341100  -2.698601 -10.709542   0.003191   0.000553
 -2.349324   0.906389   4.181750   9.167580 -10.639265   3.778400   3.710938  -2.581423  -0.132408   1.812926  -1.077754   2.720229  -5.483727   0.486630  -0.624927   7.056898 -16.972021  -3.134659  38.680306   3.410427  45.021854   0.008538  55.353478  -0.023948  -1.981279   9.276868  -0.442409   8.981317  12.248438   1.819267  45.079922 -11.631324 -49.426096   0.014564 -53.785909   0.018219  -0.248519 -10.003836  -2.633973 -17.887041  -3.308044  -5.489855  23.729722  -0.000317   0.000374 -14.223122  -4.559102   2.799880  -0.827449  -0.000053  -0.000383 -13.318703   2.687663   8.111069  20.092655  -0.001251  -0.000332  -7.341781   6.375411  -2.714605  -9.841109   0.001364  -0.000048
 -2.351185   0.906241   4.181512   9.194080 -10.742167   3.825431   3.744497  -2.560378  -0.144524   1.612514  -1.096855   2.734967  -5.459592   0.544193  -0.617290   7.034463 -17.031219  -3.044717  38.314909   3.475646  45.125375   0.007047  54.812283  -0.021449  -1.897595   9.203635  -0.513327   8.952952  12.309532   1.838757  44.764580 -11.620018 -49.398861   0.012955 -53.528611   0.015775  -0.104070 -10.009941  -2.619102 -17.998644  -3.203074  -5.367889  23.925608  -0.000475   0.000368 -14.342440  -4.566142   2.638858  -0.823572  -0.000041  -0.000306 -13.583968   2.652291   8.219176  20.619163  -0.001668  -0.000548  -7.162031   6.419410  -2.723426 -10.813042   0.002521   0.000398
